<?xml version="1.0" encoding="UTF-8" standalone="no"?><svg xmlns="http://www.w3.org/2000/svg" xmlns:xlink="http://www.w3.org/1999/xlink" contentScriptType="application/ecmascript" contentStyleType="text/css" height="387px" preserveAspectRatio="none" style="width:652px;height:387px;" version="1.1" viewBox="0 0 652 387" width="652px" zoomAndPan="magnify"><defs/><g><!--MD5=[ba25536ffc6e0dfe0759f88aa6430fb2]
cluster Phpolar\\PurePhp--><polygon fill="#FFFFFF" points="146,24,284,24,291,46.2969,630,46.2969,630,375,146,375,146,24" style="stroke: #000000; stroke-width: 1.5;"/><line style="stroke: #000000; stroke-width: 1.5;" x1="146" x2="291" y1="46.2969" y2="46.2969"/><text fill="#000000" font-family="sans-serif" font-size="14" font-weight="bold" lengthAdjust="spacingAndGlyphs" textLength="132" x="150" y="38.9951">Phpolar\PurePhp</text><!--MD5=[ce0f9321bc5d3ccd90ced3b835aae385]
class Phpolar\\PurePhp\\Binder--><rect fill="#FEFECE" height="32" id="Phpolar\\PurePhp\\Binder" style="stroke: #A80036; stroke-width: 1.5;" width="72" x="232" y="193"/><ellipse cx="247" cy="209" fill="#ADD1B2" rx="11" ry="11" style="stroke: #A80036; stroke-width: 1.0;"/><path d="M249.9688,214.6406 Q249.3906,214.9375 248.75,215.0781 Q248.1094,215.2344 247.4063,215.2344 Q244.9063,215.2344 243.5781,213.5938 Q242.2656,211.9375 242.2656,208.8125 Q242.2656,205.6875 243.5781,204.0313 Q244.9063,202.375 247.4063,202.375 Q248.1094,202.375 248.75,202.5313 Q249.4063,202.6875 249.9688,202.9844 L249.9688,205.7031 Q249.3438,205.125 248.75,204.8594 Q248.1563,204.5781 247.5313,204.5781 Q246.1875,204.5781 245.5,205.6563 Q244.8125,206.7188 244.8125,208.8125 Q244.8125,210.9063 245.5,211.9844 Q246.1875,213.0469 247.5313,213.0469 Q248.1563,213.0469 248.75,212.7813 Q249.3438,212.5 249.9688,211.9219 L249.9688,214.6406 Z "/><text fill="#000000" font-family="sans-serif" font-size="12" lengthAdjust="spacingAndGlyphs" textLength="40" x="261" y="213.1543">Binder</text><!--MD5=[34546917da2974cae4ad9d447fb02415]
class Phpolar\\PurePhp\\BindFailed--><rect fill="#FEFECE" height="32" id="Phpolar\\PurePhp\\BindFailed" style="stroke: #A80036; stroke-width: 1.5;" width="96" x="220" y="126"/><ellipse cx="235" cy="142" fill="#ADD1B2" rx="11" ry="11" style="stroke: #A80036; stroke-width: 1.0;"/><path d="M237.9688,147.6406 Q237.3906,147.9375 236.75,148.0781 Q236.1094,148.2344 235.4063,148.2344 Q232.9063,148.2344 231.5781,146.5938 Q230.2656,144.9375 230.2656,141.8125 Q230.2656,138.6875 231.5781,137.0313 Q232.9063,135.375 235.4063,135.375 Q236.1094,135.375 236.75,135.5313 Q237.4063,135.6875 237.9688,135.9844 L237.9688,138.7031 Q237.3438,138.125 236.75,137.8594 Q236.1563,137.5781 235.5313,137.5781 Q234.1875,137.5781 233.5,138.6563 Q232.8125,139.7188 232.8125,141.8125 Q232.8125,143.9063 233.5,144.9844 Q234.1875,146.0469 235.5313,146.0469 Q236.1563,146.0469 236.75,145.7813 Q237.3438,145.5 237.9688,144.9219 L237.9688,147.6406 Z "/><text fill="#000000" font-family="sans-serif" font-size="12" lengthAdjust="spacingAndGlyphs" textLength="64" x="249" y="146.1543">BindFailed</text><!--MD5=[b41c16f98e66fb0744fbbf30a2913890]
class Phpolar\\PurePhp\\Dispatcher--><rect fill="#FEFECE" height="32" id="Phpolar\\PurePhp\\Dispatcher" style="stroke: #A80036; stroke-width: 1.5;" width="100" x="218" y="59"/><ellipse cx="233" cy="75" fill="#ADD1B2" rx="11" ry="11" style="stroke: #A80036; stroke-width: 1.0;"/><path d="M235.9688,80.6406 Q235.3906,80.9375 234.75,81.0781 Q234.1094,81.2344 233.4063,81.2344 Q230.9063,81.2344 229.5781,79.5938 Q228.2656,77.9375 228.2656,74.8125 Q228.2656,71.6875 229.5781,70.0313 Q230.9063,68.375 233.4063,68.375 Q234.1094,68.375 234.75,68.5313 Q235.4063,68.6875 235.9688,68.9844 L235.9688,71.7031 Q235.3438,71.125 234.75,70.8594 Q234.1563,70.5781 233.5313,70.5781 Q232.1875,70.5781 231.5,71.6563 Q230.8125,72.7188 230.8125,74.8125 Q230.8125,76.9063 231.5,77.9844 Q232.1875,79.0469 233.5313,79.0469 Q234.1563,79.0469 234.75,78.7813 Q235.3438,78.5 235.9688,77.9219 L235.9688,80.6406 Z "/><text fill="#000000" font-family="sans-serif" font-size="12" lengthAdjust="spacingAndGlyphs" textLength="68" x="247" y="79.1543">Dispatcher</text><!--MD5=[6826049960b2997b4272c4e1a14fccb1]
class Phpolar\\PurePhp\\FileNotFound--><rect fill="#FEFECE" height="32" id="Phpolar\\PurePhp\\FileNotFound" style="stroke: #A80036; stroke-width: 1.5;" width="114" x="467" y="193"/><ellipse cx="482" cy="209" fill="#ADD1B2" rx="11" ry="11" style="stroke: #A80036; stroke-width: 1.0;"/><path d="M484.9688,214.6406 Q484.3906,214.9375 483.75,215.0781 Q483.1094,215.2344 482.4063,215.2344 Q479.9063,215.2344 478.5781,213.5938 Q477.2656,211.9375 477.2656,208.8125 Q477.2656,205.6875 478.5781,204.0313 Q479.9063,202.375 482.4063,202.375 Q483.1094,202.375 483.75,202.5313 Q484.4063,202.6875 484.9688,202.9844 L484.9688,205.7031 Q484.3438,205.125 483.75,204.8594 Q483.1563,204.5781 482.5313,204.5781 Q481.1875,204.5781 480.5,205.6563 Q479.8125,206.7188 479.8125,208.8125 Q479.8125,210.9063 480.5,211.9844 Q481.1875,213.0469 482.5313,213.0469 Q483.1563,213.0469 483.75,212.7813 Q484.3438,212.5 484.9688,211.9219 L484.9688,214.6406 Z "/><text fill="#000000" font-family="sans-serif" font-size="12" lengthAdjust="spacingAndGlyphs" textLength="82" x="496" y="213.1543">FileNotFound</text><!--MD5=[05f93aab05e73e8ba25c4bc6ec365405]
class Phpolar\\PurePhp\\FileRenderingStrategy--><rect fill="#FEFECE" height="32" id="Phpolar\\PurePhp\\FileRenderingStrategy" style="stroke: #A80036; stroke-width: 1.5;" width="170" x="439" y="327"/><ellipse cx="454" cy="343" fill="#ADD1B2" rx="11" ry="11" style="stroke: #A80036; stroke-width: 1.0;"/><path d="M456.9688,348.6406 Q456.3906,348.9375 455.75,349.0781 Q455.1094,349.2344 454.4063,349.2344 Q451.9063,349.2344 450.5781,347.5938 Q449.2656,345.9375 449.2656,342.8125 Q449.2656,339.6875 450.5781,338.0313 Q451.9063,336.375 454.4063,336.375 Q455.1094,336.375 455.75,336.5313 Q456.4063,336.6875 456.9688,336.9844 L456.9688,339.7031 Q456.3438,339.125 455.75,338.8594 Q455.1563,338.5781 454.5313,338.5781 Q453.1875,338.5781 452.5,339.6563 Q451.8125,340.7188 451.8125,342.8125 Q451.8125,344.9063 452.5,345.9844 Q453.1875,347.0469 454.5313,347.0469 Q455.1563,347.0469 455.75,346.7813 Q456.3438,346.5 456.9688,345.9219 L456.9688,348.6406 Z "/><text fill="#000000" font-family="sans-serif" font-size="12" lengthAdjust="spacingAndGlyphs" textLength="138" x="468" y="347.1543">FileRenderingStrategy</text><!--MD5=[b48f8e407a98dc754e6288af01750e0a]
class Phpolar\\PurePhp\\TemplatingStrategyInterface--><rect fill="#FEFECE" height="32" id="Phpolar\\PurePhp\\TemplatingStrategyInterface" style="stroke: #A80036; stroke-width: 1.5;" width="212" x="162" y="260"/><ellipse cx="177" cy="276" fill="#B4A7E5" rx="11" ry="11" style="stroke: #A80036; stroke-width: 1.0;"/><path d="M172.9219,271.7656 L172.9219,269.6094 L180.3125,269.6094 L180.3125,271.7656 L177.8438,271.7656 L177.8438,279.8438 L180.3125,279.8438 L180.3125,282 L172.9219,282 L172.9219,279.8438 L175.3906,279.8438 L175.3906,271.7656 L172.9219,271.7656 Z "/><text fill="#000000" font-family="sans-serif" font-size="12" font-style="italic" lengthAdjust="spacingAndGlyphs" textLength="180" x="191" y="280.1543">TemplatingStrategyInterface</text><!--MD5=[b7d61e4755f50044df44e59786243aae]
class Phpolar\\PurePhp\\HtmlSafeContext--><rect fill="#FEFECE" height="32" id="Phpolar\\PurePhp\\HtmlSafeContext" style="stroke: #A80036; stroke-width: 1.5;" width="136" x="456" y="126"/><ellipse cx="471" cy="142" fill="#ADD1B2" rx="11" ry="11" style="stroke: #A80036; stroke-width: 1.0;"/><path d="M473.9688,147.6406 Q473.3906,147.9375 472.75,148.0781 Q472.1094,148.2344 471.4063,148.2344 Q468.9063,148.2344 467.5781,146.5938 Q466.2656,144.9375 466.2656,141.8125 Q466.2656,138.6875 467.5781,137.0313 Q468.9063,135.375 471.4063,135.375 Q472.1094,135.375 472.75,135.5313 Q473.4063,135.6875 473.9688,135.9844 L473.9688,138.7031 Q473.3438,138.125 472.75,137.8594 Q472.1563,137.5781 471.5313,137.5781 Q470.1875,137.5781 469.5,138.6563 Q468.8125,139.7188 468.8125,141.8125 Q468.8125,143.9063 469.5,144.9844 Q470.1875,146.0469 471.5313,146.0469 Q472.1563,146.0469 472.75,145.7813 Q473.3438,145.5 473.9688,144.9219 L473.9688,147.6406 Z "/><text fill="#000000" font-family="sans-serif" font-size="12" lengthAdjust="spacingAndGlyphs" textLength="104" x="485" y="146.1543">HtmlSafeContext</text><!--MD5=[bad7b138875d1bd29143b7556f2df566]
class Phpolar\\PurePhp\\HtmlSafeString--><rect fill="#FEFECE" height="32" id="Phpolar\\PurePhp\\HtmlSafeString" style="stroke: #A80036; stroke-width: 1.5;" width="125" x="205.5" y="327"/><ellipse cx="220.5" cy="343" fill="#ADD1B2" rx="11" ry="11" style="stroke: #A80036; stroke-width: 1.0;"/><path d="M223.4688,348.6406 Q222.8906,348.9375 222.25,349.0781 Q221.6094,349.2344 220.9063,349.2344 Q218.4063,349.2344 217.0781,347.5938 Q215.7656,345.9375 215.7656,342.8125 Q215.7656,339.6875 217.0781,338.0313 Q218.4063,336.375 220.9063,336.375 Q221.6094,336.375 222.25,336.5313 Q222.9063,336.6875 223.4688,336.9844 L223.4688,339.7031 Q222.8438,339.125 222.25,338.8594 Q221.6563,338.5781 221.0313,338.5781 Q219.6875,338.5781 219,339.6563 Q218.3125,340.7188 218.3125,342.8125 Q218.3125,344.9063 219,345.9844 Q219.6875,347.0469 221.0313,347.0469 Q221.6563,347.0469 222.25,346.7813 Q222.8438,346.5 223.4688,345.9219 L223.4688,348.6406 Z "/><text fill="#000000" font-family="sans-serif" font-size="12" lengthAdjust="spacingAndGlyphs" textLength="93" x="234.5" y="347.1543">HtmlSafeString</text><!--MD5=[d5828431364e381dceab4e25f95701db]
class Phpolar\\PurePhp\\StreamContentStrategy--><rect fill="#FEFECE" height="32" id="Phpolar\\PurePhp\\StreamContentStrategy" style="stroke: #A80036; stroke-width: 1.5;" width="180" x="434" y="260"/><ellipse cx="449" cy="276" fill="#ADD1B2" rx="11" ry="11" style="stroke: #A80036; stroke-width: 1.0;"/><path d="M451.9688,281.6406 Q451.3906,281.9375 450.75,282.0781 Q450.1094,282.2344 449.4063,282.2344 Q446.9063,282.2344 445.5781,280.5938 Q444.2656,278.9375 444.2656,275.8125 Q444.2656,272.6875 445.5781,271.0313 Q446.9063,269.375 449.4063,269.375 Q450.1094,269.375 450.75,269.5313 Q451.4063,269.6875 451.9688,269.9844 L451.9688,272.7031 Q451.3438,272.125 450.75,271.8594 Q450.1563,271.5781 449.5313,271.5781 Q448.1875,271.5781 447.5,272.6563 Q446.8125,273.7188 446.8125,275.8125 Q446.8125,277.9063 447.5,278.9844 Q448.1875,280.0469 449.5313,280.0469 Q450.1563,280.0469 450.75,279.7813 Q451.3438,279.5 451.9688,278.9219 L451.9688,281.6406 Z "/><text fill="#000000" font-family="sans-serif" font-size="12" lengthAdjust="spacingAndGlyphs" textLength="148" x="463" y="280.1543">StreamContentStrategy</text><!--MD5=[7ba78aed0aa4566fb272c14c8a0d6c97]
class Phpolar\\PurePhp\\TemplateEngine--><rect fill="#FEFECE" height="32" id="Phpolar\\PurePhp\\TemplateEngine" style="stroke: #A80036; stroke-width: 1.5;" width="133" x="457.5" y="59"/><ellipse cx="472.5" cy="75" fill="#ADD1B2" rx="11" ry="11" style="stroke: #A80036; stroke-width: 1.0;"/><path d="M475.4688,80.6406 Q474.8906,80.9375 474.25,81.0781 Q473.6094,81.2344 472.9063,81.2344 Q470.4063,81.2344 469.0781,79.5938 Q467.7656,77.9375 467.7656,74.8125 Q467.7656,71.6875 469.0781,70.0313 Q470.4063,68.375 472.9063,68.375 Q473.6094,68.375 474.25,68.5313 Q474.9063,68.6875 475.4688,68.9844 L475.4688,71.7031 Q474.8438,71.125 474.25,70.8594 Q473.6563,70.5781 473.0313,70.5781 Q471.6875,70.5781 471,71.6563 Q470.3125,72.7188 470.3125,74.8125 Q470.3125,76.9063 471,77.9844 Q471.6875,79.0469 473.0313,79.0469 Q473.6563,79.0469 474.25,78.7813 Q474.8438,78.5 475.4688,77.9219 L475.4688,80.6406 Z "/><text fill="#000000" font-family="sans-serif" font-size="12" lengthAdjust="spacingAndGlyphs" textLength="101" x="486.5" y="79.1543">TemplateEngine</text><!--MD5=[d590cb3cf1755846c9a17bad34216c08]
class Stringable--><rect fill="#FEFECE" height="32" id="Stringable" style="stroke: #A80036; stroke-width: 1.5;" width="96" x="6" y="327"/><ellipse cx="21" cy="343" fill="#B4A7E5" rx="11" ry="11" style="stroke: #A80036; stroke-width: 1.0;"/><path d="M16.9219,338.7656 L16.9219,336.6094 L24.3125,336.6094 L24.3125,338.7656 L21.8438,338.7656 L21.8438,346.8438 L24.3125,346.8438 L24.3125,349 L16.9219,349 L16.9219,346.8438 L19.3906,346.8438 L19.3906,338.7656 L16.9219,338.7656 Z "/><text fill="#000000" font-family="sans-serif" font-size="12" font-style="italic" lengthAdjust="spacingAndGlyphs" textLength="64" x="35" y="347.1543">Stringable</text><!--MD5=[23fec714ec00b66515391aaa8d1fe821]
reverse link Phpolar\\PurePhp\\TemplatingStrategyInterface to Phpolar\\PurePhp\\FileRenderingStrategy--><path d="M353,312.22 C353,312.22 353,343 353,343 C353,343 395.92,343 438.75,343 " fill="none" id="Phpolar\\PurePhp\\TemplatingStrategyInterface&lt;-Phpolar\\PurePhp\\FileRenderingStrategy" style="stroke: #516F42; stroke-width: 1.0; stroke-dasharray: 7.0,7.0;"/><polygon fill="none" points="346,312.22,353,292.22,360,312.22,346,312.22" style="stroke: #516F42; stroke-width: 1.0;"/><!--MD5=[ae610ae91d7baf219936b39b4054bcfa]
reverse link Stringable to Phpolar\\PurePhp\\HtmlSafeString--><path d="M122.03,343 C122.03,343 205.1,343 205.1,343 " fill="none" id="Stringable&lt;-Phpolar\\PurePhp\\HtmlSafeString" style="stroke: #516F42; stroke-width: 1.0; stroke-dasharray: 7.0,7.0;"/><polygon fill="none" points="122.03,350,102.03,343,122.03,336,122.03,350" style="stroke: #516F42; stroke-width: 1.0;"/><!--MD5=[cb120ce5c8c5b376e595153ce392d908]
reverse link Phpolar\\PurePhp\\TemplatingStrategyInterface to Phpolar\\PurePhp\\StreamContentStrategy--><path d="M394.34,276 C394.34,276 433.86,276 433.86,276 " fill="none" id="Phpolar\\PurePhp\\TemplatingStrategyInterface&lt;-Phpolar\\PurePhp\\StreamContentStrategy" style="stroke: #516F42; stroke-width: 1.0; stroke-dasharray: 7.0,7.0;"/><polygon fill="none" points="394.34,283,374.34,276,394.34,269,394.34,283" style="stroke: #516F42; stroke-width: 1.0;"/><!--MD5=[98ec745f9dc2c4a74be6bca2c85a594f]
link Phpolar\\PurePhp\\Binder to Phpolar\\PurePhp\\BindFailed--><!--MD5=[81b3ee605087bcc76457009c601b4ce1]
link Phpolar\\PurePhp\\BindFailed to Phpolar\\PurePhp\\Dispatcher--><!--MD5=[5202e2a627ba0b9250c5b063f5c9da83]
link Phpolar\\PurePhp\\Binder to Phpolar\\PurePhp\\FileNotFound--><!--MD5=[20868b6483fceb60603ffafb485791e3]
link Phpolar\\PurePhp\\FileNotFound to Phpolar\\PurePhp\\HtmlSafeContext--><!--MD5=[7735b4e431613f75c97ccb3e19a08f80]
link Phpolar\\PurePhp\\HtmlSafeContext to Phpolar\\PurePhp\\TemplateEngine--><!--MD5=[48ff805d4397e69628a09b945eb9392a]
@startuml
   skinparam ArrowColor #516f42
   skinparam activityBorderColor #516f42
   skinparam activityBackgroundColor #ffffff
   skinparam activityDiamondBorderColor #516f42
   skinparam activityDiamondBackgroundColor #ffffff
   skinparam shadowing false

skinparam shadowing false
skinparam linetype ortho
hide empty members
left to right direction
set namespaceSeparator \\


class \\Phpolar\\PurePhp\\Binder {
}

class \\Phpolar\\PurePhp\\BindFailed {
}

class \\Phpolar\\PurePhp\\Dispatcher {
}

class \\Phpolar\\PurePhp\\FileNotFound {
}

class \\Phpolar\\PurePhp\\FileRenderingStrategy implements \\Phpolar\\PurePhp\\TemplatingStrategyInterface {
}

class \\Phpolar\\PurePhp\\HtmlSafeContext {
}

class \\Phpolar\\PurePhp\\HtmlSafeString implements \\Stringable {
}

class \\Phpolar\\PurePhp\\StreamContentStrategy implements \\Phpolar\\PurePhp\\TemplatingStrategyInterface {
}

class \\Phpolar\\PurePhp\\TemplateEngine {
}

interface \\Phpolar\\PurePhp\\TemplatingStrategyInterface {
}

@enduml

PlantUML version 1.2020.02(Sun Mar 01 04:22:07 CST 2020)
(GPL source distribution)
Java Runtime: OpenJDK Runtime Environment
JVM: OpenJDK 64-Bit Server VM
Java Version: 11.0.20.1+1-post-Ubuntu-0ubuntu122.04
Operating System: Linux
Default Encoding: UTF-8
Language: en
Country: US
--></g></svg>