<svg xmlns="http://www.w3.org/2000/svg" xmlns:xlink="http://www.w3.org/1999/xlink" contentStyleType="text/css" height="431px" preserveAspectRatio="none" style="width:711px;height:431px;background:#FFFFFF;" version="1.1" viewBox="0 0 711 431" width="711px" zoomAndPan="magnify"><defs/><g><!--cluster Phpolar--><g id="cluster_Phpolar"><path d="M133.5,6 L195.5176,6 A3.75,3.75 0 0 1 198.0176,8.5 L205.0176,28.2969 L701.5,28.2969 A2.5,2.5 0 0 1 704,30.7969 L704,421.5 A2.5,2.5 0 0 1 701.5,424 L133.5,424 A2.5,2.5 0 0 1 131,421.5 L131,8.5 A2.5,2.5 0 0 1 133.5,6 " fill="none" style="stroke:#000000;stroke-width:1.5;"/><line style="stroke:#000000;stroke-width:1.5;" x1="131" x2="205.0176" y1="28.2969" y2="28.2969"/><text fill="#000000" font-family="sans-serif" font-size="14" font-weight="bold" lengthAdjust="spacing" textLength="61.0176" x="135" y="20.9951">Phpolar</text></g><!--cluster PurePhp--><g id="cluster_PurePhp"><path d="M157.5,49 L225.376,49 A3.75,3.75 0 0 1 227.876,51.5 L234.876,71.2969 L677.5,71.2969 A2.5,2.5 0 0 1 680,73.7969 L680,397.5 A2.5,2.5 0 0 1 677.5,400 L157.5,400 A2.5,2.5 0 0 1 155,397.5 L155,51.5 A2.5,2.5 0 0 1 157.5,49 " fill="none" style="stroke:#000000;stroke-width:1.5;"/><line style="stroke:#000000;stroke-width:1.5;" x1="155" x2="234.876" y1="71.2969" y2="71.2969"/><text fill="#000000" font-family="sans-serif" font-size="14" font-weight="bold" lengthAdjust="spacing" textLength="66.876" x="159" y="63.9951">PurePhp</text></g><!--class Binder__class--><g id="elem_Binder__class"><rect codeLine="15" fill="#F1F1F1" height="32" id="Binder__class" rx="2.5" ry="2.5" style="stroke:#181818;stroke-width:0.5;" width="77.623" x="249" y="218"/><ellipse cx="264" cy="234" fill="#ADD1B2" rx="11" ry="11" style="stroke:#181818;stroke-width:1;"/><path d="M266.9688,239.6406 Q266.3906,239.9375 265.75,240.0781 Q265.1094,240.2344 264.4063,240.2344 Q261.9063,240.2344 260.5781,238.5938 Q259.2656,236.9375 259.2656,233.8125 Q259.2656,230.6875 260.5781,229.0313 Q261.9063,227.375 264.4063,227.375 Q265.1094,227.375 265.75,227.5313 Q266.4063,227.6875 266.9688,227.9844 L266.9688,230.7031 Q266.3438,230.125 265.75,229.8594 Q265.1563,229.5781 264.5313,229.5781 Q263.1875,229.5781 262.5,230.6563 Q261.8125,231.7188 261.8125,233.8125 Q261.8125,235.9063 262.5,236.9844 Q263.1875,238.0469 264.5313,238.0469 Q265.1563,238.0469 265.75,237.7813 Q266.3438,237.5 266.9688,236.9219 L266.9688,239.6406 Z " fill="#000000"/><text fill="#000000" font-family="sans-serif" font-size="14" lengthAdjust="spacing" textLength="45.623" x="278" y="238.8467">Binder</text></g><!--class BindFailed__class--><g id="elem_BindFailed__class"><rect codeLine="19" fill="#F1F1F1" height="32" id="BindFailed__class" rx="2.5" ry="2.5" style="stroke:#181818;stroke-width:0.5;" width="105.165" x="235.5" y="151"/><ellipse cx="250.5" cy="167" fill="#ADD1B2" rx="11" ry="11" style="stroke:#181818;stroke-width:1;"/><path d="M253.4688,172.6406 Q252.8906,172.9375 252.25,173.0781 Q251.6094,173.2344 250.9063,173.2344 Q248.4063,173.2344 247.0781,171.5938 Q245.7656,169.9375 245.7656,166.8125 Q245.7656,163.6875 247.0781,162.0313 Q248.4063,160.375 250.9063,160.375 Q251.6094,160.375 252.25,160.5313 Q252.9063,160.6875 253.4688,160.9844 L253.4688,163.7031 Q252.8438,163.125 252.25,162.8594 Q251.6563,162.5781 251.0313,162.5781 Q249.6875,162.5781 249,163.6563 Q248.3125,164.7188 248.3125,166.8125 Q248.3125,168.9063 249,169.9844 Q249.6875,171.0469 251.0313,171.0469 Q251.6563,171.0469 252.25,170.7813 Q252.8438,170.5 253.4688,169.9219 L253.4688,172.6406 Z " fill="#000000"/><text fill="#000000" font-family="sans-serif" font-size="14" lengthAdjust="spacing" textLength="73.165" x="264.5" y="171.8467">BindFailed</text></g><!--class Dispatcher__class--><g id="elem_Dispatcher__class"><rect codeLine="23" fill="#F1F1F1" height="32" id="Dispatcher__class" rx="2.5" ry="2.5" style="stroke:#181818;stroke-width:0.5;" width="107.8584" x="234" y="84"/><ellipse cx="249" cy="100" fill="#ADD1B2" rx="11" ry="11" style="stroke:#181818;stroke-width:1;"/><path d="M251.9688,105.6406 Q251.3906,105.9375 250.75,106.0781 Q250.1094,106.2344 249.4063,106.2344 Q246.9063,106.2344 245.5781,104.5938 Q244.2656,102.9375 244.2656,99.8125 Q244.2656,96.6875 245.5781,95.0313 Q246.9063,93.375 249.4063,93.375 Q250.1094,93.375 250.75,93.5313 Q251.4063,93.6875 251.9688,93.9844 L251.9688,96.7031 Q251.3438,96.125 250.75,95.8594 Q250.1563,95.5781 249.5313,95.5781 Q248.1875,95.5781 247.5,96.6563 Q246.8125,97.7188 246.8125,99.8125 Q246.8125,101.9063 247.5,102.9844 Q248.1875,104.0469 249.5313,104.0469 Q250.1563,104.0469 250.75,103.7813 Q251.3438,103.5 251.9688,102.9219 L251.9688,105.6406 Z " fill="#000000"/><text fill="#000000" font-family="sans-serif" font-size="14" lengthAdjust="spacing" textLength="75.8584" x="263" y="104.8467">Dispatcher</text></g><!--class FileNotFound__class--><g id="elem_FileNotFound__class"><rect codeLine="27" fill="#F1F1F1" height="32" id="FileNotFound__class" rx="2.5" ry="2.5" style="stroke:#181818;stroke-width:0.5;" width="124.2236" x="502.5" y="218"/><ellipse cx="517.5" cy="234" fill="#ADD1B2" rx="11" ry="11" style="stroke:#181818;stroke-width:1;"/><path d="M520.4688,239.6406 Q519.8906,239.9375 519.25,240.0781 Q518.6094,240.2344 517.9063,240.2344 Q515.4063,240.2344 514.0781,238.5938 Q512.7656,236.9375 512.7656,233.8125 Q512.7656,230.6875 514.0781,229.0313 Q515.4063,227.375 517.9063,227.375 Q518.6094,227.375 519.25,227.5313 Q519.9063,227.6875 520.4688,227.9844 L520.4688,230.7031 Q519.8438,230.125 519.25,229.8594 Q518.6563,229.5781 518.0313,229.5781 Q516.6875,229.5781 516,230.6563 Q515.3125,231.7188 515.3125,233.8125 Q515.3125,235.9063 516,236.9844 Q516.6875,238.0469 518.0313,238.0469 Q518.6563,238.0469 519.25,237.7813 Q519.8438,237.5 520.4688,236.9219 L520.4688,239.6406 Z " fill="#000000"/><text fill="#000000" font-family="sans-serif" font-size="14" lengthAdjust="spacing" textLength="92.2236" x="531.5" y="238.8467">FileNotFound</text></g><!--class TemplatingStrategyInterface__interface--><g id="elem_TemplatingStrategyInterface__interface"><rect codeLine="31" fill="#F1F1F1" height="32" id="TemplatingStrategyInterface__interface" rx="2.5" ry="2.5" style="stroke:#181818;stroke-width:0.5;" width="233.9609" x="171" y="285"/><ellipse cx="186" cy="301" fill="#B4A7E5" rx="11" ry="11" style="stroke:#181818;stroke-width:1;"/><path d="M181.9219,296.7656 L181.9219,294.6094 L189.3125,294.6094 L189.3125,296.7656 L186.8438,296.7656 L186.8438,304.8438 L189.3125,304.8438 L189.3125,307 L181.9219,307 L181.9219,304.8438 L184.3906,304.8438 L184.3906,296.7656 L181.9219,296.7656 Z " fill="#000000"/><text fill="#000000" font-family="sans-serif" font-size="14" font-style="italic" lengthAdjust="spacing" textLength="201.9609" x="200" y="305.8467">TemplatingStrategyInterface</text></g><!--class FileRenderingStrategy__class--><g id="elem_FileRenderingStrategy__class"><rect codeLine="35" fill="#F1F1F1" height="32" id="FileRenderingStrategy__class" rx="2.5" ry="2.5" style="stroke:#181818;stroke-width:0.5;" width="188.5498" x="470" y="352"/><ellipse cx="485" cy="368" fill="#ADD1B2" rx="11" ry="11" style="stroke:#181818;stroke-width:1;"/><path d="M487.9688,373.6406 Q487.3906,373.9375 486.75,374.0781 Q486.1094,374.2344 485.4063,374.2344 Q482.9063,374.2344 481.5781,372.5938 Q480.2656,370.9375 480.2656,367.8125 Q480.2656,364.6875 481.5781,363.0313 Q482.9063,361.375 485.4063,361.375 Q486.1094,361.375 486.75,361.5313 Q487.4063,361.6875 487.9688,361.9844 L487.9688,364.7031 Q487.3438,364.125 486.75,363.8594 Q486.1563,363.5781 485.5313,363.5781 Q484.1875,363.5781 483.5,364.6563 Q482.8125,365.7188 482.8125,367.8125 Q482.8125,369.9063 483.5,370.9844 Q484.1875,372.0469 485.5313,372.0469 Q486.1563,372.0469 486.75,371.7813 Q487.3438,371.5 487.9688,370.9219 L487.9688,373.6406 Z " fill="#000000"/><text fill="#000000" font-family="sans-serif" font-size="14" lengthAdjust="spacing" textLength="156.5498" x="499" y="372.8467">FileRenderingStrategy</text></g><!--class HtmlSafeContext__class--><g id="elem_HtmlSafeContext__class"><rect codeLine="39" fill="#F1F1F1" height="32" id="HtmlSafeContext__class" rx="2.5" ry="2.5" style="stroke:#181818;stroke-width:0.5;" width="151.6426" x="488.5" y="151"/><ellipse cx="503.5" cy="167" fill="#ADD1B2" rx="11" ry="11" style="stroke:#181818;stroke-width:1;"/><path d="M506.4688,172.6406 Q505.8906,172.9375 505.25,173.0781 Q504.6094,173.2344 503.9063,173.2344 Q501.4063,173.2344 500.0781,171.5938 Q498.7656,169.9375 498.7656,166.8125 Q498.7656,163.6875 500.0781,162.0313 Q501.4063,160.375 503.9063,160.375 Q504.6094,160.375 505.25,160.5313 Q505.9063,160.6875 506.4688,160.9844 L506.4688,163.7031 Q505.8438,163.125 505.25,162.8594 Q504.6563,162.5781 504.0313,162.5781 Q502.6875,162.5781 502,163.6563 Q501.3125,164.7188 501.3125,166.8125 Q501.3125,168.9063 502,169.9844 Q502.6875,171.0469 504.0313,171.0469 Q504.6563,171.0469 505.25,170.7813 Q505.8438,170.5 506.4688,169.9219 L506.4688,172.6406 Z " fill="#000000"/><text fill="#000000" font-family="sans-serif" font-size="14" lengthAdjust="spacing" textLength="119.6426" x="517.5" y="171.8467">HtmlSafeContext</text></g><!--class HtmlSafeString__class--><g id="elem_HtmlSafeString__class"><rect codeLine="45" fill="#F1F1F1" height="32" id="HtmlSafeString__class" rx="2.5" ry="2.5" style="stroke:#181818;stroke-width:0.5;" width="138.333" x="219" y="352"/><ellipse cx="234" cy="368" fill="#ADD1B2" rx="11" ry="11" style="stroke:#181818;stroke-width:1;"/><path d="M236.9688,373.6406 Q236.3906,373.9375 235.75,374.0781 Q235.1094,374.2344 234.4063,374.2344 Q231.9063,374.2344 230.5781,372.5938 Q229.2656,370.9375 229.2656,367.8125 Q229.2656,364.6875 230.5781,363.0313 Q231.9063,361.375 234.4063,361.375 Q235.1094,361.375 235.75,361.5313 Q236.4063,361.6875 236.9688,361.9844 L236.9688,364.7031 Q236.3438,364.125 235.75,363.8594 Q235.1563,363.5781 234.5313,363.5781 Q233.1875,363.5781 232.5,364.6563 Q231.8125,365.7188 231.8125,367.8125 Q231.8125,369.9063 232.5,370.9844 Q233.1875,372.0469 234.5313,372.0469 Q235.1563,372.0469 235.75,371.7813 Q236.3438,371.5 236.9688,370.9219 L236.9688,373.6406 Z " fill="#000000"/><text fill="#000000" font-family="sans-serif" font-size="14" lengthAdjust="spacing" textLength="106.333" x="248" y="372.8467">HtmlSafeString</text></g><!--class StreamContentStrategy__class--><g id="elem_StreamContentStrategy__class"><rect codeLine="49" fill="#F1F1F1" height="32" id="StreamContentStrategy__class" rx="2.5" ry="2.5" style="stroke:#181818;stroke-width:0.5;" width="198.626" x="465" y="285"/><ellipse cx="480" cy="301" fill="#ADD1B2" rx="11" ry="11" style="stroke:#181818;stroke-width:1;"/><path d="M482.9688,306.6406 Q482.3906,306.9375 481.75,307.0781 Q481.1094,307.2344 480.4063,307.2344 Q477.9063,307.2344 476.5781,305.5938 Q475.2656,303.9375 475.2656,300.8125 Q475.2656,297.6875 476.5781,296.0313 Q477.9063,294.375 480.4063,294.375 Q481.1094,294.375 481.75,294.5313 Q482.4063,294.6875 482.9688,294.9844 L482.9688,297.7031 Q482.3438,297.125 481.75,296.8594 Q481.1563,296.5781 480.5313,296.5781 Q479.1875,296.5781 478.5,297.6563 Q477.8125,298.7188 477.8125,300.8125 Q477.8125,302.9063 478.5,303.9844 Q479.1875,305.0469 480.5313,305.0469 Q481.1563,305.0469 481.75,304.7813 Q482.3438,304.5 482.9688,303.9219 L482.9688,306.6406 Z " fill="#000000"/><text fill="#000000" font-family="sans-serif" font-size="14" lengthAdjust="spacing" textLength="166.626" x="494" y="305.8467">StreamContentStrategy</text></g><!--class TemplateEngine__class--><g id="elem_TemplateEngine__class"><rect codeLine="53" fill="#F1F1F1" height="32" id="TemplateEngine__class" rx="2.5" ry="2.5" style="stroke:#181818;stroke-width:0.5;" width="146.2422" x="491.5" y="84"/><ellipse cx="506.5" cy="100" fill="#ADD1B2" rx="11" ry="11" style="stroke:#181818;stroke-width:1;"/><path d="M509.4688,105.6406 Q508.8906,105.9375 508.25,106.0781 Q507.6094,106.2344 506.9063,106.2344 Q504.4063,106.2344 503.0781,104.5938 Q501.7656,102.9375 501.7656,99.8125 Q501.7656,96.6875 503.0781,95.0313 Q504.4063,93.375 506.9063,93.375 Q507.6094,93.375 508.25,93.5313 Q508.9063,93.6875 509.4688,93.9844 L509.4688,96.7031 Q508.8438,96.125 508.25,95.8594 Q507.6563,95.5781 507.0313,95.5781 Q505.6875,95.5781 505,96.6563 Q504.3125,97.7188 504.3125,99.8125 Q504.3125,101.9063 505,102.9844 Q505.6875,104.0469 507.0313,104.0469 Q507.6563,104.0469 508.25,103.7813 Q508.8438,103.5 509.4688,102.9219 L509.4688,105.6406 Z " fill="#000000"/><text fill="#000000" font-family="sans-serif" font-size="14" lengthAdjust="spacing" textLength="114.2422" x="520.5" y="104.8467">TemplateEngine</text></g><!--class Stringable__class--><g id="elem_Stringable__class"><rect codeLine="42" fill="#F1F1F1" height="40.2656" id="Stringable__class" rx="2.5" ry="2.5" style="stroke:#181818;stroke-width:0.5;" width="103.75" x="7" y="348"/><ellipse cx="22" cy="368.1328" fill="#B4A7E5" rx="11" ry="11" style="stroke:#181818;stroke-width:1;"/><path d="M17.9219,363.8984 L17.9219,361.7422 L25.3125,361.7422 L25.3125,363.8984 L22.8438,363.8984 L22.8438,371.9766 L25.3125,371.9766 L25.3125,374.1328 L17.9219,374.1328 L17.9219,371.9766 L20.3906,371.9766 L20.3906,363.8984 L17.9219,363.8984 Z " fill="#000000"/><text fill="#000000" font-family="sans-serif" font-size="12" font-style="italic" lengthAdjust="spacing" textLength="64.4824" x="39.6338" y="364.1387">&#171;external&#187;</text><text fill="#000000" font-family="sans-serif" font-size="14" font-style="italic" lengthAdjust="spacing" textLength="71.75" x="36" y="379.9639">Stringable</text></g><!--reverse link TemplatingStrategyInterface__interface to FileRenderingStrategy__class--><g id="link_TemplatingStrategyInterface__interface_FileRenderingStrategy__class"><path d="M381,335.22 C381,355.05 381,368 381,368 C381,368 424.92,368 469.79,368 " fill="none" id="TemplatingStrategyInterface__interface-backto-FileRenderingStrategy__class" style="stroke:#516F42;stroke-width:1;stroke-dasharray:7.0,7.0;"/><polygon fill="none" points="381,317.22,375,335.22,387,335.22,381,317.22" style="stroke:#516F42;stroke-width:1;"/></g><!--reverse link Stringable__class to HtmlSafeString__class--><g id="link_Stringable__class_HtmlSafeString__class"><path d="M129.25,368 C161.06,368 184.09,368 218.6,368 " fill="none" id="Stringable__class-backto-HtmlSafeString__class" style="stroke:#516F42;stroke-width:1;stroke-dasharray:7.0,7.0;"/><polygon fill="none" points="111.25,368,129.25,374,129.25,362,111.25,368" style="stroke:#516F42;stroke-width:1;"/></g><!--reverse link TemplatingStrategyInterface__interface to StreamContentStrategy__class--><g id="link_TemplatingStrategyInterface__interface_StreamContentStrategy__class"><path d="M423.26,301 C443.13,301 445.59,301 464.95,301 " fill="none" id="TemplatingStrategyInterface__interface-backto-StreamContentStrategy__class" style="stroke:#516F42;stroke-width:1;stroke-dasharray:7.0,7.0;"/><polygon fill="none" points="405.26,301,423.26,307,423.26,295,405.26,301" style="stroke:#516F42;stroke-width:1;"/></g><!--SRC=[pPJBJiCm44Nt_efH-G8GiAegyQfWWohACb8r99F4me_8db8gnBypIVe8qA8IDcGLpvqSNy-r0W3nMRiA0rgu2C4lhhpn0OxEZi_pqnC5NHrJrY-QbvS-P1GEQSJqkGX-xh9LSzuykvklDLhlieFXw_v3zeWbPdwXNG4vcaXAxPUsYj6EU5aH-C2bLwNE2CXMl0HBzeb2L8Po1lOGT54oP3gGUFDEHM9mQ2bMcDAKQXoBjIHHQbE6ILbvWo599lD0ie2tsZD0QZ1665ng9tCO04PeNsUpLf6dxNnNxx_3ZL4RoZR8TlatxBMMDaxBbTFjyc_OiJYxzpokOst0tK8_j7PC8QyR1e-Iea6MpASioL2nl5kBpMO_wBFPbjFtO0zKnzcXRqxuJUaSLOidikGuoZtwkakI7EYvX-LRjcQAELrveRnoO_PBRMSYdO6B9J66JwQTxtQv_d0u1C5GS6XWD7hhOw-5VdBNblRDyBkB7iCH2A5jnk3uKvuxbV-GvufCDwwG7rptmgzAEzFy0000]--></g></svg>